<svg width="1381" height="831.5" xmlns="http://www.w3.org/2000/svg" xmlns:xlink="http://www.w3.org/1999/xlink" fill="#ffffff"><defs><style>
  text {
    fill: #212529;
    font-family: Helvetica Neue, Helvetica, Arial, sans-serif;
    font-size: 16px;
  }

  marker, text {
    fill-opacity: 1;
  }

  * {
    overflow: visible;
  }
</style></defs><svg x="345" y="245" width="1020" height="530" class="Model" fill="#ffffff"><g><path d="M 0 10 V 0 H 40 V 10" stroke="black" fill="white" class="sc-gEvEer fkqzOi"></path><rect y="10" width="100%" height="520" stroke="black" fill="white" class="sc-fqkvVR uHYUy"></rect><text x="50%" y="20" dy="10" text-anchor="middle" font-weight="bold" pointer-events="none">Model</text></g></svg><svg x="345" y="305" width="330" height="450" class="GameState" fill="#ffffff"><g><rect width="100%" height="40" stroke="none" fill="white" class="sc-fqkvVR eDtKfR"></rect><rect y="40" width="100%" height="410" stroke="none" fill="white" class="sc-fqkvVR eDtKfR"></rect><svg height="40"><text x="50%" y="50%" dominant-baseline="middle" text-anchor="middle" font-weight="bold" pointer-events="none">GameState</text></svg><svg x="0" y="40.5" width="329" height="40" class="- inHand: ListCard" fill="#ffffff"><g><rect width="100%" height="100%" stroke="none" fill="white" class="sc-fqkvVR eDtKfR"></rect><text x="10" y="50%" dominant-baseline="middle" text-anchor="start" font-weight="normal" pointer-events="none">- inHand: List&lt;Card&gt;</text></g></svg><svg x="0" y="80.5" width="329" height="30" class="- inPlayerGraveyard: ListCard" fill="#ffffff"><g><rect width="100%" height="100%" stroke="none" fill="white" class="sc-fqkvVR eDtKfR"></rect><text x="10" y="50%" dominant-baseline="middle" text-anchor="start" font-weight="normal" pointer-events="none">- inPlayerGraveyard: List&lt;Card&gt;</text></g></svg><svg x="0" y="110.5" width="329" height="30" class="- onStack: ListCard " fill="#ffffff"><g><rect width="100%" height="100%" stroke="none" fill="white" class="sc-fqkvVR eDtKfR"></rect><text x="10" y="50%" dominant-baseline="middle" text-anchor="start" font-weight="normal" pointer-events="none">- onStack: List&lt;Card&gt; </text></g></svg><svg x="0" y="140.5" width="329" height="30" class="- inOppGraveyard: ListCard" fill="#ffffff"><g><rect width="100%" height="100%" stroke="none" fill="white" class="sc-fqkvVR eDtKfR"></rect><text x="10" y="50%" dominant-baseline="middle" text-anchor="start" font-weight="normal" pointer-events="none">- inOppGraveyard: List&lt;Card&gt;</text></g></svg><svg x="0" y="170.5" width="329" height="30" class="- PlayerCreatures: ListCreature" fill="#ffffff"><g><rect width="100%" height="100%" stroke="none" fill="white" class="sc-fqkvVR eDtKfR"></rect><text x="10" y="50%" dominant-baseline="middle" text-anchor="start" font-weight="normal" pointer-events="none">- PlayerCreatures: List&lt;Creature&gt;</text></g></svg><svg x="0" y="200.5" width="329" height="30" class="- OppCreatures: ListCreature" fill="#ffffff"><g><rect width="100%" height="100%" stroke="none" fill="white" class="sc-fqkvVR eDtKfR"></rect><text x="10" y="50%" dominant-baseline="middle" text-anchor="start" font-weight="normal" pointer-events="none">- OppCreatures: List&lt;Creature&gt;</text></g></svg><svg x="0" y="230.5" width="329" height="30" class="- PlayerEnchantments: ListEnchantment" fill="#ffffff"><g><rect width="100%" height="100%" stroke="none" fill="white" class="sc-fqkvVR eDtKfR"></rect><text x="10" y="50%" dominant-baseline="middle" text-anchor="start" font-weight="normal" pointer-events="none">- PlayerEnchantments: List&lt;Enchantment&gt;</text></g></svg><svg x="0" y="260.5" width="329" height="30" class="- OppEnchantments: ListEnchantment" fill="#ffffff"><g><rect width="100%" height="100%" stroke="none" fill="white" class="sc-fqkvVR eDtKfR"></rect><text x="10" y="50%" dominant-baseline="middle" text-anchor="start" font-weight="normal" pointer-events="none">- OppEnchantments: List&lt;Enchantment&gt;</text></g></svg><svg x="0" y="290.5" width="329" height="30" class="- PlayerArtifact: ListArtifact" fill="#ffffff"><g><rect width="100%" height="100%" stroke="none" fill="white" class="sc-fqkvVR eDtKfR"></rect><text x="10" y="50%" dominant-baseline="middle" text-anchor="start" font-weight="normal" pointer-events="none">- PlayerArtifact: List&lt;Artifact&gt;</text></g></svg><svg x="0" y="320.5" width="329" height="30" class="- OppArtifact: ListArtifact" fill="#ffffff"><g><rect width="100%" height="100%" stroke="none" fill="white" class="sc-fqkvVR eDtKfR"></rect><text x="10" y="50%" dominant-baseline="middle" text-anchor="start" font-weight="normal" pointer-events="none">- OppArtifact: List&lt;Artifact&gt;</text></g></svg><svg x="0" y="350.5" width="329" height="30" class="- PlayerLand: ListLand" fill="#ffffff"><g><rect width="100%" height="100%" stroke="none" fill="white" class="sc-fqkvVR eDtKfR"></rect><text x="10" y="50%" dominant-baseline="middle" text-anchor="start" font-weight="normal" pointer-events="none">- PlayerLand: List&lt;Land&gt;</text></g></svg><svg x="0" y="380.5" width="329" height="30" class="- OppLand: ListLand" fill="#ffffff"><g><rect width="100%" height="100%" stroke="none" fill="white" class="sc-fqkvVR eDtKfR"></rect><text x="10" y="50%" dominant-baseline="middle" text-anchor="start" font-weight="normal" pointer-events="none">- OppLand: List&lt;Land&gt;</text></g></svg><svg x="0" y="410.5" width="329" height="40" class="+ update()" fill="#ffffff"><g><rect width="100%" height="100%" stroke="none" fill="white" class="sc-fqkvVR eDtKfR"></rect><text x="10" y="50%" dominant-baseline="middle" text-anchor="start" font-weight="normal" pointer-events="none">+ update()</text></g></svg><rect width="100%" height="100%" stroke="black" fill="none" class="sc-fqkvVR jAaomD"></rect><path d="M 0 40 H 330" stroke="black" fill="white" class="sc-gEvEer fkqzOi"></path><path d="M 0 410 H 330" stroke="black" fill="white" class="sc-gEvEer fkqzOi"></path></g></svg><svg x="705" y="305" width="660" height="180" class="Calculator" fill="#ffffff"><g><rect width="100%" height="40" stroke="none" fill="white" class="sc-fqkvVR eDtKfR"></rect><rect y="40" width="100%" height="140" stroke="none" fill="white" class="sc-fqkvVR eDtKfR"></rect><svg height="40"><text x="50%" y="50%" dominant-baseline="middle" text-anchor="middle" font-weight="bold" pointer-events="none">Calculator</text></svg><svg x="0" y="40.5" width="659" height="40" class="- gameState: GameState" fill="#ffffff"><g><rect width="100%" height="100%" stroke="none" fill="white" class="sc-fqkvVR eDtKfR"></rect><text x="10" y="50%" dominant-baseline="middle" text-anchor="start" font-weight="normal" pointer-events="none">- gameState: GameState</text></g></svg><svg x="0" y="80.5" width="659" height="40" class="+ attack(attackers: ListCreature, blockers: ListCreature): ListCreature" fill="#ffffff"><g><rect width="100%" height="100%" stroke="none" fill="white" class="sc-fqkvVR eDtKfR"></rect><text x="10" y="50%" dominant-baseline="middle" text-anchor="start" font-weight="normal" pointer-events="none">+ attack(attackers: List&lt;Creature&gt;, blockers: List&lt;Creature&gt;): List&lt;Creature&gt;</text></g></svg><svg x="0" y="120.5" width="659" height="30" class="+ block(attackers: ListCreature, blockers: ListCreature): ListCreature" fill="#ffffff"><g><rect width="100%" height="100%" stroke="none" fill="white" class="sc-fqkvVR eDtKfR"></rect><text x="10" y="50%" dominant-baseline="middle" text-anchor="start" font-weight="normal" pointer-events="none">+ block(attackers: List&lt;Creature&gt;, blockers: List&lt;Creature&gt;): List&lt;Creature&gt;</text></g></svg><svg x="0" y="150.5" width="659" height="30" class="+ castable(inHand: ListCard, PlayerLand: ListLand): ListCard" fill="#ffffff"><g><rect width="100%" height="100%" stroke="none" fill="white" class="sc-fqkvVR eDtKfR"></rect><text x="10" y="50%" dominant-baseline="middle" text-anchor="start" font-weight="normal" pointer-events="none">+ castable(inHand: List&lt;Card&gt;, PlayerLand: List&lt;Land&gt;): List&lt;Card&gt;</text></g></svg><rect width="100%" height="100%" stroke="black" fill="none" class="sc-fqkvVR jAaomD"></rect><path d="M 0 40 H 660" stroke="black" fill="white" class="sc-gEvEer fkqzOi"></path><path d="M 0 80 H 660" stroke="black" fill="white" class="sc-gEvEer fkqzOi"></path></g></svg><svg x="735" y="695" width="160" height="120" class="Class" fill="#ffffff"><g><rect width="100%" height="40" stroke="none" fill="white" class="sc-fqkvVR eDtKfR"></rect><rect y="40" width="100%" height="80" stroke="none" fill="white" class="sc-fqkvVR eDtKfR"></rect><svg height="40"><text x="50%" y="50%" dominant-baseline="middle" text-anchor="middle" font-weight="bold" pointer-events="none">Class</text></svg><svg x="0" y="40.5" width="159" height="40" class="+ attribute: Type" fill="#ffffff"><g><rect width="100%" height="100%" stroke="none" fill="white" class="sc-fqkvVR eDtKfR"></rect><text x="10" y="50%" dominant-baseline="middle" text-anchor="start" font-weight="normal" pointer-events="none">+ attribute: Type</text></g></svg><svg x="0" y="80.5" width="159" height="40" class="+ method()" fill="#ffffff"><g><rect width="100%" height="100%" stroke="none" fill="white" class="sc-fqkvVR eDtKfR"></rect><text x="10" y="50%" dominant-baseline="middle" text-anchor="start" font-weight="normal" pointer-events="none">+ method()</text></g></svg><rect width="100%" height="100%" stroke="black" fill="none" class="sc-fqkvVR jAaomD"></rect><path d="M 0 40 H 160" stroke="black" fill="white" class="sc-gEvEer fkqzOi"></path><path d="M 0 80 H 160" stroke="black" fill="white" class="sc-gEvEer fkqzOi"></path></g></svg><svg x="825" y="15" width="160" height="100" class="View" fill="#ffffff"><g><path d="M 0 10 V 0 H 40 V 10" stroke="black" fill="white" class="sc-gEvEer fkqzOi"></path><rect y="10" width="100%" height="90" stroke="black" fill="white" class="sc-fqkvVR uHYUy"></rect><text x="50%" y="20" dy="10" text-anchor="middle" font-weight="bold" pointer-events="none">View</text></g></svg><svg x="125" y="15" width="160" height="100" class="Controller" fill="#ffffff"><g><path d="M 0 10 V 0 H 40 V 10" stroke="black" fill="white" class="sc-gEvEer fkqzOi"></path><rect y="10" width="100%" height="90" stroke="black" fill="white" class="sc-fqkvVR uHYUy"></rect><text x="50%" y="20" dy="10" text-anchor="middle" font-weight="bold" pointer-events="none">Controller</text></g></svg><svg x="35" y="385" width="160" height="130" class="Card" fill="#ffffff"><g><rect width="100%" height="50" stroke="none" fill="white" class="sc-fqkvVR eDtKfR"></rect><rect y="50" width="100%" height="80" stroke="none" fill="white" class="sc-fqkvVR eDtKfR"></rect><svg height="50"><text x="50%" y="50%" dominant-baseline="middle" text-anchor="middle" font-weight="bold" pointer-events="none"><tspan x="50%" dy="-8" text-anchor="middle" font-size="85%">«interface»</tspan><tspan x="50%" dy="18" text-anchor="middle">Card</tspan></text></svg><svg x="0" y="50.5" width="159" height="40" class="+ cmc: int" fill="#ffffff"><g><rect width="100%" height="100%" stroke="none" fill="white" class="sc-fqkvVR eDtKfR"></rect><text x="10" y="50%" dominant-baseline="middle" text-anchor="start" font-weight="normal" pointer-events="none">+ cmc: int</text></g></svg><svg x="0" y="90.5" width="159" height="40" class="+ method()" fill="#ffffff"><g><rect width="100%" height="100%" stroke="none" fill="white" class="sc-fqkvVR eDtKfR"></rect><text x="10" y="50%" dominant-baseline="middle" text-anchor="start" font-weight="normal" pointer-events="none">+ method()</text></g></svg><rect width="100%" height="100%" stroke="black" fill="none" class="sc-fqkvVR jAaomD"></rect><path d="M 0 50 H 160" stroke="black" fill="white" class="sc-gEvEer fkqzOi"></path><path d="M 0 90 H 160" stroke="black" fill="white" class="sc-gEvEer fkqzOi"></path></g></svg><svg x="15" y="545" width="190" height="210" class="Creature" fill="#ffffff"><g><rect width="100%" height="40" stroke="none" fill="white" class="sc-fqkvVR eDtKfR"></rect><rect y="40" width="100%" height="170" stroke="none" fill="white" class="sc-fqkvVR eDtKfR"></rect><svg height="40"><text x="50%" y="50%" dominant-baseline="middle" text-anchor="middle" font-weight="bold" pointer-events="none">Creature</text></svg><svg x="0" y="40.5" width="189" height="40" class="- power: int" fill="#ffffff"><g><rect width="100%" height="100%" stroke="none" fill="white" class="sc-fqkvVR eDtKfR"></rect><text x="10" y="50%" dominant-baseline="middle" text-anchor="start" font-weight="normal" pointer-events="none">- power: int</text></g></svg><svg x="0" y="80.5" width="189" height="30" class="- toughness: int" fill="#ffffff"><g><rect width="100%" height="100%" stroke="none" fill="white" class="sc-fqkvVR eDtKfR"></rect><text x="10" y="50%" dominant-baseline="middle" text-anchor="start" font-weight="normal" pointer-events="none">- toughness: int</text></g></svg><svg x="0" y="110.5" width="189" height="30" class="- summoningSick: bool" fill="#ffffff"><g><rect width="100%" height="100%" stroke="none" fill="white" class="sc-fqkvVR eDtKfR"></rect><text x="10" y="50%" dominant-baseline="middle" text-anchor="start" font-weight="normal" pointer-events="none">- summoningSick: bool</text></g></svg><svg x="0" y="140.5" width="189" height="30" class="- untapped: bool" fill="#ffffff"><g><rect width="100%" height="100%" stroke="none" fill="white" class="sc-fqkvVR eDtKfR"></rect><text x="10" y="50%" dominant-baseline="middle" text-anchor="start" font-weight="normal" pointer-events="none">- untapped: bool</text></g></svg><svg x="0" y="170.5" width="189" height="40" class="+ method()" fill="#ffffff"><g><rect width="100%" height="100%" stroke="none" fill="white" class="sc-fqkvVR eDtKfR"></rect><text x="10" y="50%" dominant-baseline="middle" text-anchor="start" font-weight="normal" pointer-events="none">+ method()</text></g></svg><rect width="100%" height="100%" stroke="black" fill="none" class="sc-fqkvVR jAaomD"></rect><path d="M 0 40 H 190" stroke="black" fill="white" class="sc-gEvEer fkqzOi"></path><path d="M 0 170 H 190" stroke="black" fill="white" class="sc-gEvEer fkqzOi"></path></g></svg></svg>